General

Complete name                            : [IKnime] Naruto Shippuuden - 266 [Lite].mp4
Format                                   : MPEG-4
Format profile                           : Base Media
Codec ID                                 : isom
File size                                : 82.1 MiB
Duration                                 : 23mn 25s
Overall bit rate mode                    : Variable
Overall bit rate                         : 490 Kbps

Video

ID                                       : 1
Format                                   : AVC
Format/Info                              : Advanced Video Codec
Format profile                           : High@L4.0
Format settings, CABAC                   : Yes
Format settings, ReFrames                : 6 frames
Codec ID                                 : avc1
Codec ID/Info                            : Advanced Video Coding
Duration                                 : 23mn 24s
Bit rate                                 : 461 Kbps
Maximum bit rate                         : 3 861 Kbps
Width                                    : 1 280 pixels
Height                                   : 720 pixels
Display aspect ratio                     : 16:9
Frame rate mode                          : Constant
Frame rate                               : 23.976 fps
Color space                              : YUV
Chroma subsampling                       : 4:2:0
Bit depth                                : 8 bits
Scan type                                : Progressive
Bits/(Pixel*Frame)                       : 0.021
Stream size                              : 77.2 MiB (94%)



Audio


Format                                   : AAC
Format/Info                              : Advanced Audio Codec
Format profile                           : HE-AACv2 / HE-AAC / LC
Codec ID                                 : 40
Duration                                 : 23mn 25s
Bit rate mode                            : Variable
Bit rate                                 : 26.0 Kbps
Maximum bit rate                         : 30.1 Kbps
Channel(s)                               : 2 channels / 1 channel / 1 channel
Channel positions                        : Front: L R / Front: C / Front: C
Sampling rate                            : 48.0 KHz / 48.0 KHz / 24.0 KHz
Compression mode                         : Lossy
Delay relative to video                  : -3s 337ms
Stream size                              : 4.36 MiB (5%)
Language                                 : Japanese
